# xmcd
#
# Track frame offsets:
#	150
#	21049
#	37050
#	59253
#	76798
#	94737
#	112443
#	128347
#	146483
#	167837
#	184188
#	202851
#	217558
#
# Disc length: 3138 seconds
#
# Revision: 0
# Processed by: cddbd v1.5.2PL0 Copyright (c) Steve Scherf et al.
# Submitted via: EZCDAudioConverter 1.3.4.1
#
DISCID=a80c400d
DTITLE=ΔΕΣΠΟΙΝΑ ΒΑΝΔΗ - ΔΕΚΑ ΕΝΤΟΛΕΣ
DYEAR=1997
DGENRE=ΣΥΓΧΡΟΝΑ ΛΑΪΚΑ
TTITLE0=ΤΗΣ ΚΑΡΔΙΑΣ ΜΟΥ ΓΙΑΤΡΕΙΑ
TTITLE1=ΚΟΙΤΑΞΕ ΜΕ
TTITLE2=ΝΥΧΤΟΛΟΥΛΟΥΔΟ ΜΟΥ
TTITLE3=Ο ΠΕΡΙΤΤΟΣ
TTITLE4=ΟΥΤΟΠΙΑ
TTITLE5=ΕΡΕΙΠΙΟ
TTITLE6=ΤΟ ΑΛΛΟ ΜΙΣΟ
TTITLE7=ΕΝΑ ΚΑΙ ΕΝΑ ΚΑΝΟΥΝ ΔΥΟ
TTITLE8=ΘΕΛΩ ΝΑ ΣΕ ΞΕΧΑΣΩ
TTITLE9=ΔΕΚΑ ΕΝΤΟΛΕΣ
TTITLE10=ΠΡΟΣΠΑΘΩ
TTITLE11=ΜΕΤΑΝΙΩΝΩ
TTITLE12=ΔΕΝ ΕΙΣΑΙ ΕΔΩ
EXTD=
EXTT0=
EXTT1=
EXTT2=
EXTT3=
EXTT4=
EXTT5=
EXTT6=
EXTT7=
EXTT8=
EXTT9=
EXTT10=
EXTT11=
EXTT12=
PLAYORDER=
